<svg width="49" height="67" viewBox="0 0 49 67" fill="none" xmlns="http://www.w3.org/2000/svg">
<g clip-path="url(#clip0_414_2004)">
<path d="M22.0293 17.8164L48.9914 26.9071L45.6858 36.7115L18.7236 27.6208L22.0293 17.8164Z" fill="white"/>
<rect x="22.5708" y="18.9089" width="6.03558" height="8.62225" rx="0.862226" transform="rotate(18.6323 22.5708 18.9089)" fill="#7FB7E5"/>
<rect x="29.1069" y="21.1128" width="6.03558" height="8.62225" rx="0.862226" transform="rotate(18.6323 29.1069 21.1128)" fill="#7FB7E5"/>
<rect x="35.6436" y="23.3164" width="6.03558" height="8.62225" rx="0.862226" transform="rotate(18.6323 35.6436 23.3164)" fill="#7FB7E5"/>
<rect x="42.1797" y="25.5203" width="6.03558" height="8.62225" rx="0.862226" transform="rotate(18.6323 42.1797 25.5203)" fill="#7FB7E5"/>
<g clip-path="url(#clip1_414_2004)">
<path d="M18.71 27.6377L45.6721 36.7284L42.3664 46.5328L15.4043 37.4421L18.71 27.6377Z" fill="white"/>
<rect x="19.2515" y="28.7302" width="6.03558" height="8.62225" rx="0.862226" transform="rotate(18.6323 19.2515 28.7302)" fill="#7FB7E5"/>
<rect x="25.7876" y="30.9341" width="6.03558" height="8.62225" rx="0.862226" transform="rotate(18.6323 25.7876 30.9341)" fill="#7FB7E5"/>
<rect x="32.3242" y="33.1377" width="6.03558" height="8.62225" rx="0.862226" transform="rotate(18.6323 32.3242 33.1377)" fill="#7FB7E5"/>
<rect x="38.8604" y="35.3416" width="6.03558" height="8.62225" rx="0.862226" transform="rotate(18.6323 38.8604 35.3416)" fill="#7FB7E5"/>
</g>
<g clip-path="url(#clip2_414_2004)">
<path d="M15.3911 37.4587L42.3533 46.5494L39.0476 56.3538L12.0854 47.2632L15.3911 37.4587Z" fill="white"/>
<rect x="15.9326" y="38.5513" width="6.03558" height="8.62225" rx="0.862226" transform="rotate(18.6323 15.9326 38.5513)" fill="#7FB7E5"/>
<rect x="22.4688" y="40.7551" width="6.03558" height="8.62225" rx="0.862226" transform="rotate(18.6323 22.4688 40.7551)" fill="#7FB7E5"/>
<rect x="29.0054" y="42.9587" width="6.03558" height="8.62225" rx="0.862226" transform="rotate(18.6323 29.0054 42.9587)" fill="#7FB7E5"/>
<rect x="35.5415" y="45.1626" width="6.03558" height="8.62225" rx="0.862226" transform="rotate(18.6323 35.5415 45.1626)" fill="#7FB7E5"/>
</g>
<g clip-path="url(#clip3_414_2004)">
<path d="M12.0718 47.28L39.0339 56.3707L35.7282 66.1751L8.76608 57.0844L12.0718 47.28Z" fill="white"/>
<rect x="12.6133" y="48.3726" width="6.03558" height="8.62225" rx="0.862226" transform="rotate(18.6323 12.6133 48.3726)" fill="#7FB7E5"/>
<rect x="19.1494" y="50.5764" width="6.03558" height="8.62225" rx="0.862226" transform="rotate(18.6323 19.1494 50.5764)" fill="#7FB7E5"/>
<rect x="25.686" y="52.78" width="6.03558" height="8.62225" rx="0.862226" transform="rotate(18.6323 25.686 52.78)" fill="#7FB7E5"/>
<rect x="32.2222" y="54.9839" width="6.03558" height="8.62225" rx="0.862226" transform="rotate(18.6323 32.2222 54.9839)" fill="#7FB7E5"/>
</g>
</g>
<g clip-path="url(#clip4_414_2004)">
<path d="M0.00146484 13.907L28.4289 12.6898L28.8715 23.0271L0.44407 24.2442L0.00146484 13.907Z" fill="white"/>
<rect x="0.899902" y="14.7314" width="6.03558" height="8.62226" rx="0.862226" transform="rotate(-2.45171 0.899902 14.7314)" fill="#7FB7E5"/>
<rect x="7.7915" y="14.4365" width="6.03558" height="8.62226" rx="0.862226" transform="rotate(-2.45171 7.7915 14.4365)" fill="#7FB7E5"/>
<rect x="14.6826" y="14.1414" width="6.03558" height="8.62226" rx="0.862226" transform="rotate(-2.45171 14.6826 14.1414)" fill="#7FB7E5"/>
<rect x="21.5742" y="13.8464" width="6.03558" height="8.62226" rx="0.862226" transform="rotate(-2.45171 21.5742 13.8464)" fill="#7FB7E5"/>
<g clip-path="url(#clip5_414_2004)">
<path d="M0.445312 24.2473L28.8727 23.0301L29.3153 33.3674L0.887918 34.5846L0.445312 24.2473Z" fill="white"/>
<rect x="1.34375" y="25.0718" width="6.03558" height="8.62226" rx="0.862226" transform="rotate(-2.45171 1.34375 25.0718)" fill="#7FB7E5"/>
<rect x="8.23535" y="24.7769" width="6.03558" height="8.62226" rx="0.862226" transform="rotate(-2.45171 8.23535 24.7769)" fill="#7FB7E5"/>
<rect x="15.1265" y="24.4817" width="6.03558" height="8.62226" rx="0.862226" transform="rotate(-2.45171 15.1265 24.4817)" fill="#7FB7E5"/>
<rect x="22.0181" y="24.1868" width="6.03558" height="8.62226" rx="0.862226" transform="rotate(-2.45171 22.0181 24.1868)" fill="#7FB7E5"/>
</g>
<g clip-path="url(#clip6_414_2004)">
<path d="M0.88916 34.5876L29.3166 33.3705L29.7592 43.7077L1.33177 44.9249L0.88916 34.5876Z" fill="white"/>
<rect x="1.7876" y="35.4121" width="6.03558" height="8.62226" rx="0.862226" transform="rotate(-2.45171 1.7876 35.4121)" fill="#7FB7E5"/>
<rect x="8.6792" y="35.1172" width="6.03558" height="8.62226" rx="0.862226" transform="rotate(-2.45171 8.6792 35.1172)" fill="#7FB7E5"/>
<rect x="15.5703" y="34.822" width="6.03558" height="8.62226" rx="0.862226" transform="rotate(-2.45171 15.5703 34.822)" fill="#7FB7E5"/>
<rect x="22.4619" y="34.5271" width="6.03558" height="8.62226" rx="0.862226" transform="rotate(-2.45171 22.4619 34.5271)" fill="#7FB7E5"/>
</g>
<g clip-path="url(#clip7_414_2004)">
<path d="M1.33301 44.928L29.7604 43.7108L30.203 54.0481L1.77561 55.2652L1.33301 44.928Z" fill="white"/>
<rect x="2.23145" y="45.7524" width="6.03558" height="8.62226" rx="0.862226" transform="rotate(-2.45171 2.23145 45.7524)" fill="#7FB7E5"/>
<rect x="9.12305" y="45.4575" width="6.03558" height="8.62226" rx="0.862226" transform="rotate(-2.45171 9.12305 45.4575)" fill="#7FB7E5"/>
<rect x="16.0142" y="45.1624" width="6.03558" height="8.62226" rx="0.862226" transform="rotate(-2.45171 16.0142 45.1624)" fill="#7FB7E5"/>
<rect x="22.9058" y="44.8674" width="6.03558" height="8.62226" rx="0.862226" transform="rotate(-2.45171 22.9058 44.8674)" fill="#7FB7E5"/>
</g>
</g>
<g clip-path="url(#clip8_414_2004)">
<path d="M17.813 0L46.1148 2.93391L45.0479 13.2255L16.7461 10.2916L17.813 0Z" fill="white"/>
<rect x="18.5815" y="0.946533" width="6.03558" height="8.62226" rx="0.862226" transform="rotate(5.91845 18.5815 0.946533)" fill="#7FB7E5"/>
<rect x="25.4429" y="1.65771" width="6.03558" height="8.62226" rx="0.862226" transform="rotate(5.91845 25.4429 1.65771)" fill="#7FB7E5"/>
<rect x="32.3037" y="2.36914" width="6.03558" height="8.62226" rx="0.862226" transform="rotate(5.91845 32.3037 2.36914)" fill="#7FB7E5"/>
<rect x="39.165" y="3.08032" width="6.03558" height="8.62226" rx="0.862226" transform="rotate(5.91845 39.165 3.08032)" fill="#7FB7E5"/>
<g clip-path="url(#clip9_414_2004)">
<path d="M16.7432 10.2981L45.045 13.232L43.9781 23.5236L15.6763 20.5897L16.7432 10.2981Z" fill="white"/>
<rect x="17.5117" y="11.2446" width="6.03558" height="8.62226" rx="0.862226" transform="rotate(5.91845 17.5117 11.2446)" fill="#7FB7E5"/>
<rect x="24.373" y="11.9558" width="6.03558" height="8.62226" rx="0.862226" transform="rotate(5.91845 24.373 11.9558)" fill="#7FB7E5"/>
<rect x="31.2339" y="12.6672" width="6.03558" height="8.62226" rx="0.862226" transform="rotate(5.91845 31.2339 12.6672)" fill="#7FB7E5"/>
<rect x="38.0952" y="13.3784" width="6.03558" height="8.62226" rx="0.862226" transform="rotate(5.91845 38.0952 13.3784)" fill="#7FB7E5"/>
</g>
<g clip-path="url(#clip10_414_2004)">
<path d="M15.6729 20.5962L43.9746 23.5301L42.9078 33.8217L14.606 30.8878L15.6729 20.5962Z" fill="white"/>
<rect x="16.4414" y="21.5427" width="6.03558" height="8.62226" rx="0.862226" transform="rotate(5.91845 16.4414 21.5427)" fill="#7FB7E5"/>
<rect x="23.3027" y="22.2539" width="6.03558" height="8.62226" rx="0.862226" transform="rotate(5.91845 23.3027 22.2539)" fill="#7FB7E5"/>
<rect x="30.1636" y="22.9653" width="6.03558" height="8.62226" rx="0.862226" transform="rotate(5.91845 30.1636 22.9653)" fill="#7FB7E5"/>
<rect x="37.0249" y="23.6765" width="6.03558" height="8.62226" rx="0.862226" transform="rotate(5.91845 37.0249 23.6765)" fill="#7FB7E5"/>
</g>
<g clip-path="url(#clip11_414_2004)">
<path d="M14.603 30.8943L42.9048 33.8282L41.8379 44.1198L13.5361 41.1858L14.603 30.8943Z" fill="white"/>
<rect x="15.3716" y="31.8408" width="6.03558" height="8.62226" rx="0.862226" transform="rotate(5.91845 15.3716 31.8408)" fill="#7FB7E5"/>
<rect x="22.2329" y="32.552" width="6.03558" height="8.62226" rx="0.862226" transform="rotate(5.91845 22.2329 32.552)" fill="#7FB7E5"/>
<rect x="29.0938" y="33.2634" width="6.03558" height="8.62226" rx="0.862226" transform="rotate(5.91845 29.0938 33.2634)" fill="#7FB7E5"/>
<rect x="35.9551" y="33.9746" width="6.03558" height="8.62226" rx="0.862226" transform="rotate(5.91845 35.9551 33.9746)" fill="#7FB7E5"/>
</g>
</g>
<defs>
<clipPath id="clip0_414_2004">
<rect width="28.4555" height="41.2899" rx="0.862226" transform="matrix(0.947815 0.31882 -0.320167 0.947361 22.0293 17.8164)" fill="white"/>
</clipPath>
<clipPath id="clip1_414_2004">
<rect width="28.4535" height="10.3467" fill="white" transform="translate(18.71 27.6377) rotate(18.6323)"/>
</clipPath>
<clipPath id="clip2_414_2004">
<rect width="28.4535" height="10.3467" fill="white" transform="translate(15.3911 37.4587) rotate(18.6323)"/>
</clipPath>
<clipPath id="clip3_414_2004">
<rect width="28.4535" height="10.3467" fill="white" transform="translate(12.0718 47.28) rotate(18.6323)"/>
</clipPath>
<clipPath id="clip4_414_2004">
<rect width="28.4479" height="41.2801" rx="0.862226" transform="matrix(0.999089 -0.0426671 0.042888 0.99908 0 13.9038)" fill="white"/>
</clipPath>
<clipPath id="clip5_414_2004">
<rect width="28.4535" height="10.3467" fill="white" transform="translate(0.445312 24.2473) rotate(-2.45171)"/>
</clipPath>
<clipPath id="clip6_414_2004">
<rect width="28.4535" height="10.3467" fill="white" transform="translate(0.88916 34.5876) rotate(-2.45171)"/>
</clipPath>
<clipPath id="clip7_414_2004">
<rect width="28.4535" height="10.3467" fill="white" transform="translate(1.33301 44.928) rotate(-2.45171)"/>
</clipPath>
<clipPath id="clip8_414_2004">
<rect width="28.4495" height="41.281" rx="0.862226" transform="matrix(0.994694 0.102873 -0.103353 0.994645 17.813 0)" fill="white"/>
</clipPath>
<clipPath id="clip9_414_2004">
<rect width="28.4535" height="10.3467" fill="white" transform="translate(16.7432 10.2981) rotate(5.91845)"/>
</clipPath>
<clipPath id="clip10_414_2004">
<rect width="28.4535" height="10.3467" fill="white" transform="translate(15.6729 20.5962) rotate(5.91845)"/>
</clipPath>
<clipPath id="clip11_414_2004">
<rect width="28.4535" height="10.3467" fill="white" transform="translate(14.603 30.8943) rotate(5.91845)"/>
</clipPath>
</defs>
</svg>
