<svg width="855" height="184" viewBox="0 0 855 184" fill="none" xmlns="http://www.w3.org/2000/svg">
<path d="M45.525 90.7766C38.0124 91.1344 30.3209 91.1344 24.597 91.1344C18.6942 91.1344 11.1816 90.9555 4.20562 90.7766C4.38449 95.6062 4.20562 102.046 4.20562 111.883C4.20562 135.852 2.4169 171.09 1.34367 183.253C9.57177 183.074 18.1576 182.896 24.597 182.896C31.2153 182.896 40.1588 182.896 48.387 183.253C47.1348 171.448 45.1673 136.568 45.1673 111.883C45.1673 103.298 45.1673 95.9639 45.525 90.7766ZM24.7759 82.3696C40.6955 82.3696 49.1024 76.8246 49.1024 64.6613C49.1024 52.3192 40.8743 46.5953 24.7759 46.5953C8.67741 46.5953 0.270436 52.3192 0.270436 64.6613C0.270436 76.8246 8.85628 82.3696 24.7759 82.3696Z" fill="#CB3805"/>
<path d="M70.363 25.8461C70.8996 38.7249 70.8996 62.1571 70.8996 92.9231C70.8996 121.543 70.363 149.089 70.363 160H158.905C158.905 153.203 158.726 146.585 158.726 139.787C158.726 133.169 158.905 126.372 158.905 119.754C144.595 120.112 128.139 120.29 115.796 120.29C115.618 111.883 115.618 102.224 115.618 92.7442C115.796 63.0515 116.154 35.863 116.512 25.8461H70.363Z" fill="#58C0BA"/>
<path d="M245.88 102.761C245.88 121.721 239.082 129.234 226.561 129.234C214.398 129.234 207.243 121.9 207.243 102.761C207.243 83.6217 214.577 77.719 226.561 77.719C238.725 77.719 245.88 83.9795 245.88 102.761ZM287.378 102.046C287.378 62.1571 264.661 46.2375 226.561 46.2375C188.462 46.2375 166.461 62.1571 166.461 102.046C166.461 141.755 186.315 162.325 226.561 162.325C266.808 162.325 287.378 141.755 287.378 102.046Z" fill="#446F9A"/>
<path d="M295.852 48.5629C296.21 58.0431 296.031 72.3528 296.031 82.5485L306.942 82.7274C306.763 96.8583 306.584 110.274 306.584 120.469C306.584 145.154 317.138 161.431 353.449 161.431C366.685 161.431 375.45 160 386.003 157.317C384.572 146.406 382.605 130.844 382.068 119.575C376.523 121.721 369.368 122.974 360.961 122.974C350.944 122.974 347.367 119.933 347.367 111.883C347.367 101.688 347.367 92.2076 347.546 83.264C362.034 83.4429 375.629 83.8006 382.784 83.9795C382.605 72.7106 383.141 59.6529 383.499 48.5629C373.303 48.7417 360.782 48.9206 348.082 48.9206C348.261 41.408 348.619 34.2531 348.798 27.456C342.359 27.8137 335.025 27.8137 328.049 27.8137C321.073 27.8137 313.918 27.8137 307.479 27.456C307.479 33.7165 307.479 41.0503 307.3 48.7417L295.852 48.5629ZM809.474 117.429C816.986 117.071 824.678 117.071 830.223 117.071C836.126 117.071 843.638 117.071 850.793 117.429C850.436 112.599 850.614 106.16 850.614 96.1428C850.614 72.7106 852.582 37.8306 853.655 25.8461C845.427 26.2039 836.841 26.2039 830.223 26.2039C823.784 26.2039 814.84 26.2039 806.433 25.8461C807.685 37.6517 809.653 71.9951 809.653 96.3216C809.653 104.907 809.832 112.241 809.474 117.429ZM830.044 125.657C814.125 125.657 805.718 131.381 805.718 143.544C805.718 155.707 814.125 161.61 830.044 161.61C846.321 161.61 854.728 155.707 854.728 143.544C854.728 131.381 846.143 125.657 830.044 125.657Z" fill="#7B5ED0"/>
<path d="M453.965 71.9951C465.413 71.9951 469.706 77.0035 469.706 90.5977C469.706 92.3865 469.706 93.9963 469.527 95.4273C457.9 95.6062 446.273 95.6062 435.899 95.4273C437.33 76.288 443.054 71.9951 453.965 71.9951ZM487.235 122.795C480.08 122.795 473.82 122.616 469.527 122.258C469.348 131.381 465.949 135.852 454.501 135.852C441.98 135.852 436.614 130.307 435.72 112.778C442.875 112.599 452.892 112.599 463.803 112.599C478.649 112.599 495.284 112.599 506.374 112.957C506.911 108.127 507.269 100.972 507.269 91.8498C507.269 62.5149 495.463 46.2375 454.68 46.2375C416.223 46.2375 395.474 61.6205 395.474 104.55C395.474 145.333 414.792 162.325 453.428 162.325C498.862 162.325 507.805 148.194 506.911 122.258C501.366 122.616 494.748 122.795 487.235 122.795Z" fill="#D9647C"/>
<path d="M559.189 72.5317C559.368 63.767 559.725 56.2544 560.083 48.5629H524.845C525.382 64.3036 525.382 80.2232 525.382 103.655C525.382 127.624 525.203 144.438 524.845 160H569.921C569.206 147.837 569.027 131.023 569.027 116.892C569.027 96.8583 574.035 91.1344 588.345 90.9555C592.996 90.9555 597.467 91.671 601.403 92.9231C601.581 78.2556 602.655 61.6205 603.728 48.9206C599.793 47.8474 595.679 47.3108 591.207 47.3108C576.539 47.3108 565.628 54.2868 560.62 72.5317H559.189Z" fill="#CB3805"/>
<path d="M664.498 0.625224C656.449 4.91815 615.845 25.1307 607.259 29.0658C608.869 32.2855 610.658 36.0418 612.089 39.977C621.927 36.9362 664.141 25.4884 673.621 23.3419C670.58 16.5448 666.824 7.06461 664.498 0.625224ZM658.953 160C658.417 143.365 658.417 128.876 658.417 104.55C658.417 81.6541 658.417 65.7346 658.953 48.5629H616.382C616.74 65.5557 616.918 81.833 616.918 102.224C616.918 123.868 616.918 142.828 616.382 160H658.953Z" fill="#7FB7E5"/>
<path d="M727.196 135.316C717.537 135.316 714.138 132.275 714.138 124.583C714.138 117.071 718.968 113.851 730.058 113.851C735.245 113.851 740.253 114.03 744.904 114.567C744.904 128.34 738.107 135.316 727.196 135.316ZM745.083 99.8991C739.359 99.0047 731.846 98.8258 723.797 98.8258C690.527 98.8258 675.144 108.127 675.144 131.381C675.144 154.097 687.307 161.61 710.024 161.61C728.448 161.61 740.432 155.17 744.904 141.397H745.977C745.798 144.796 745.619 148.194 745.619 150.878C745.619 159.285 746.872 160 754.205 160H787.833C786.223 155.17 785.329 139.966 785.329 127.624C785.329 114.03 785.866 103.477 785.866 88.4513C785.866 61.7994 770.483 46.5953 731.846 46.5953C692.137 46.5953 677.112 63.5881 678.543 93.8174C683.372 93.1019 691.242 93.1019 698.934 93.1019C705.373 93.1019 711.634 93.1019 715.927 93.4597C715.211 81.833 720.22 77.3612 730.952 77.3612C741.148 77.3612 745.083 82.0119 745.083 90.9555V99.8991Z" fill="#DF6D45"/>
</svg>