<svg width="307" height="59" viewBox="0 0 307 59" fill="none" xmlns="http://www.w3.org/2000/svg">
<path d="M16.8668 25.232C14.1788 25.36 11.4268 25.36 9.37875 25.36C7.26675 25.36 4.57875 25.296 2.08275 25.232C2.14675 26.96 2.08275 29.264 2.08275 32.784C2.08275 41.36 1.44275 53.968 1.05875 58.32C4.00275 58.256 7.07475 58.192 9.37875 58.192C11.7468 58.192 14.9468 58.192 17.8908 58.32C17.4428 54.096 16.7388 41.616 16.7388 32.784C16.7388 29.712 16.7388 27.088 16.8668 25.232ZM9.44275 22.224C15.1388 22.224 18.1468 20.24 18.1468 15.888C18.1468 11.472 15.2028 9.424 9.44275 9.424C3.68275 9.424 0.67475 11.472 0.67475 15.888C0.67475 20.24 3.74675 22.224 9.44275 22.224Z" fill="#CB3805"/>
<path d="M25.7538 2C25.9458 6.608 25.9458 14.992 25.9458 26C25.9458 36.24 25.7538 46.096 25.7538 50H57.4338C57.4338 47.568 57.3698 45.2 57.3698 42.768C57.3698 40.4 57.4338 37.968 57.4338 35.6C52.3138 35.728 46.4258 35.792 42.0098 35.792C41.9458 32.784 41.9458 29.328 41.9458 25.936C42.0098 15.312 42.1378 5.584 42.2658 2H25.7538Z" fill="#58C0BA"/>
<path d="M88.5533 29.52C88.5533 36.304 86.1213 38.992 81.6413 38.992C77.2893 38.992 74.7292 36.368 74.7292 29.52C74.7292 22.672 77.3533 20.56 81.6413 20.56C85.9933 20.56 88.5533 22.8 88.5533 29.52ZM103.401 29.264C103.401 14.992 95.2733 9.296 81.6413 9.296C68.0093 9.296 60.1373 14.992 60.1373 29.264C60.1373 43.472 67.2413 50.832 81.6413 50.832C96.0413 50.832 103.401 43.472 103.401 29.264Z" fill="#446F9A"/>
<path d="M106.433 10.128C106.561 13.52 106.497 18.64 106.497 22.288L110.401 22.352C110.337 27.408 110.273 32.208 110.273 35.856C110.273 44.688 114.049 50.512 127.041 50.512C131.777 50.512 134.913 50 138.689 49.04C138.177 45.136 137.473 39.568 137.281 35.536C135.297 36.304 132.737 36.752 129.729 36.752C126.145 36.752 124.865 35.664 124.865 32.784C124.865 29.136 124.865 25.744 124.929 22.544C130.113 22.608 134.977 22.736 137.537 22.8C137.473 18.768 137.665 14.096 137.793 10.128C134.145 10.192 129.665 10.256 125.121 10.256C125.185 7.568 125.313 5.008 125.377 2.576C123.073 2.704 120.449 2.704 117.953 2.704C115.457 2.704 112.897 2.704 110.593 2.576C110.593 4.816 110.593 7.44 110.529 10.192L106.433 10.128ZM290.206 34.768C292.894 34.64 295.646 34.64 297.63 34.64C299.742 34.64 302.43 34.64 304.99 34.768C304.862 33.04 304.926 30.736 304.926 27.152C304.926 18.768 305.63 6.288 306.014 2C303.07 2.128 299.998 2.128 297.63 2.128C295.326 2.128 292.126 2.128 289.118 2C289.566 6.224 290.27 18.512 290.27 27.216C290.27 30.288 290.334 32.912 290.206 34.768ZM297.566 37.712C291.87 37.712 288.862 39.76 288.862 44.112C288.862 48.464 291.87 50.576 297.566 50.576C303.39 50.576 306.398 48.464 306.398 44.112C306.398 39.76 303.326 37.712 297.566 37.712Z" fill="#7B5ED0"/>
<path d="M163.006 18.512C167.102 18.512 168.638 20.304 168.638 25.168C168.638 25.808 168.638 26.384 168.574 26.896C164.414 26.96 160.254 26.96 156.542 26.896C157.054 20.048 159.102 18.512 163.006 18.512ZM174.91 36.688C172.35 36.688 170.11 36.624 168.574 36.496C168.51 39.76 167.294 41.36 163.198 41.36C158.718 41.36 156.798 39.376 156.478 33.104C159.038 33.04 162.622 33.04 166.526 33.04C171.838 33.04 177.79 33.04 181.758 33.168C181.95 31.44 182.078 28.88 182.078 25.616C182.078 15.12 177.854 9.296 163.262 9.296C149.502 9.296 142.078 14.8 142.078 30.16C142.078 44.752 148.99 50.832 162.814 50.832C179.07 50.832 182.27 45.776 181.95 36.496C179.966 36.624 177.598 36.688 174.91 36.688Z" fill="#D9647C"/>
<path d="M200.655 18.704C200.719 15.568 200.847 12.88 200.975 10.128H188.367C188.559 15.76 188.559 21.456 188.559 29.84C188.559 38.416 188.495 44.432 188.367 50H204.495C204.239 45.648 204.175 39.632 204.175 34.576C204.175 27.408 205.967 25.36 211.087 25.296C212.751 25.296 214.351 25.552 215.759 26C215.823 20.752 216.207 14.8 216.591 10.256C215.183 9.872 213.711 9.68 212.111 9.68C206.863 9.68 202.959 12.176 201.167 18.704H200.655Z" fill="#CB3805"/>
<path d="M237.438 3.792C237.438 1.616 236.222 0.271999 228.798 0.271999C221.31 0.271999 220.03 1.616 220.03 3.792C220.03 5.712 221.118 7.568 228.798 7.568C236.35 7.568 237.438 5.712 237.438 3.792ZM236.35 50C236.158 44.048 236.158 38.864 236.158 30.16C236.158 21.968 236.158 16.272 236.35 10.128H221.118C221.246 16.208 221.31 22.032 221.31 29.328C221.31 37.072 221.31 43.856 221.118 50H236.35Z" fill="#7FB7E5"/>
<path d="M260.767 41.168C257.311 41.168 256.095 40.08 256.095 37.328C256.095 34.64 257.823 33.488 261.791 33.488C263.647 33.488 265.439 33.552 267.103 33.744C267.103 38.672 264.671 41.168 260.767 41.168ZM267.167 28.496C265.119 28.176 262.431 28.112 259.551 28.112C247.647 28.112 242.143 31.44 242.143 39.76C242.143 47.888 246.495 50.576 254.623 50.576C261.215 50.576 265.503 48.272 267.103 43.344H267.487C267.423 44.56 267.359 45.776 267.359 46.736C267.359 49.744 267.807 50 270.431 50H282.463C281.887 48.272 281.567 42.832 281.567 38.416C281.567 33.552 281.759 29.776 281.759 24.4C281.759 14.864 276.255 9.424 262.431 9.424C248.223 9.424 242.847 15.504 243.359 26.32C245.087 26.064 247.903 26.064 250.655 26.064C252.959 26.064 255.199 26.064 256.735 26.192C256.479 22.032 258.271 20.432 262.111 20.432C265.759 20.432 267.167 22.096 267.167 25.296V28.496Z" fill="#DF6D45"/>
</svg>
